<mxfile host="app.diagrams.net" modified="2024-01-04T05:40:39.142Z" agent="Mozilla/5.0 (Windows NT 10.0; Win64; x64) AppleWebKit/537.36 (KHTML, like Gecko) Chrome/120.0.0.0 Safari/537.36" etag="F1CG3kDcpnJfCpt7WL4g" version="22.1.16" type="github">
  <diagram name="Trang-1" id="ub4iE0CZ1Mp9VNyecoae">
    <mxGraphModel dx="1235" dy="665" grid="1" gridSize="10" guides="1" tooltips="1" connect="1" arrows="1" fold="1" page="1" pageScale="1" pageWidth="827" pageHeight="1169" math="0" shadow="0">
      <root>
        <mxCell id="0" />
        <mxCell id="1" parent="0" />
        <mxCell id="cA_QavERVGoHL_NmuGd5-44" style="edgeStyle=orthogonalEdgeStyle;rounded=0;orthogonalLoop=1;jettySize=auto;html=1;exitX=1;exitY=0.5;exitDx=0;exitDy=0;entryX=0.5;entryY=0;entryDx=0;entryDy=0;" parent="1" edge="1">
          <mxGeometry relative="1" as="geometry">
            <mxPoint x="460" y="1675" as="sourcePoint" />
          </mxGeometry>
        </mxCell>
        <mxCell id="cA_QavERVGoHL_NmuGd5-60" value="&lt;p style=&quot;margin:0px;margin-top:4px;text-align:center;&quot;&gt;&lt;b&gt;User&lt;/b&gt;&lt;/p&gt;&lt;hr size=&quot;1&quot;&gt;&lt;p style=&quot;margin:0px;margin-left:4px;&quot;&gt;- userID : String(key)&lt;/p&gt;&lt;p style=&quot;margin:0px;margin-left:4px;&quot;&gt;- full_name&lt;/p&gt;&lt;p style=&quot;margin:0px;margin-left:4px;&quot;&gt;- user_name : String&lt;/p&gt;&lt;p style=&quot;margin:0px;margin-left:4px;&quot;&gt;- Mssv : String&lt;/p&gt;&lt;p style=&quot;margin:0px;margin-left:4px;&quot;&gt;- password : String&lt;/p&gt;&lt;p style=&quot;margin:0px;margin-left:4px;&quot;&gt;- email : String&lt;/p&gt;&lt;p style=&quot;margin:0px;margin-left:4px;&quot;&gt;- sdt : int&lt;/p&gt;&lt;p style=&quot;margin:0px;margin-left:4px;&quot;&gt;- cccd : int&lt;/p&gt;&lt;p style=&quot;margin:0px;margin-left:4px;&quot;&gt;- sex : String&lt;/p&gt;&lt;p style=&quot;margin:0px;margin-left:4px;&quot;&gt;- birthday : String&lt;/p&gt;&lt;hr size=&quot;1&quot;&gt;&lt;p style=&quot;margin:0px;margin-left:4px;&quot;&gt;+ createUser()&amp;nbsp;&lt;/p&gt;&lt;p style=&quot;margin:0px;margin-left:4px;&quot;&gt;+ updateUser()&lt;/p&gt;&lt;p style=&quot;margin:0px;margin-left:4px;&quot;&gt;+ deleteUser()&lt;/p&gt;&lt;p style=&quot;margin:0px;margin-left:4px;&quot;&gt;+ getFull_name() : String&lt;/p&gt;&lt;p style=&quot;border-color: var(--border-color); margin: 0px 0px 0px 4px;&quot;&gt;+ getUser_name_name() : String&lt;/p&gt;&lt;p style=&quot;border-color: var(--border-color); margin: 0px 0px 0px 4px;&quot;&gt;+ getPassword() : String&lt;/p&gt;&lt;p style=&quot;border-color: var(--border-color); margin: 0px 0px 0px 4px;&quot;&gt;+ geEmail() : String&lt;/p&gt;&lt;p style=&quot;border-color: var(--border-color); margin: 0px 0px 0px 4px;&quot;&gt;+ getSdt() : int&lt;/p&gt;&lt;p style=&quot;border-color: var(--border-color); margin: 0px 0px 0px 4px;&quot;&gt;+ getCccd() : int&lt;/p&gt;&lt;p style=&quot;border-color: var(--border-color); margin: 0px 0px 0px 4px;&quot;&gt;+ geSex() : String&lt;/p&gt;&lt;p style=&quot;border-color: var(--border-color); margin: 0px 0px 0px 4px;&quot;&gt;+ getBirthday() : String&lt;/p&gt;&lt;p style=&quot;border-color: var(--border-color); margin: 0px 0px 0px 4px;&quot;&gt;&lt;br&gt;&lt;/p&gt;" style="verticalAlign=top;align=left;overflow=fill;fontSize=12;fontFamily=Helvetica;html=1;whiteSpace=wrap;" parent="1" vertex="1">
          <mxGeometry x="300" y="690" width="180" height="350" as="geometry" />
        </mxCell>
        <mxCell id="cA_QavERVGoHL_NmuGd5-61" value="&lt;p style=&quot;margin:0px;margin-top:4px;text-align:center;&quot;&gt;&lt;b&gt;Mistake&lt;/b&gt;&lt;/p&gt;&lt;hr size=&quot;1&quot;&gt;&lt;p style=&quot;margin:0px;margin-left:4px;&quot;&gt;- mistakeID : String (key)&lt;/p&gt;&lt;p style=&quot;margin:0px;margin-left:4px;&quot;&gt;- name_mistake : String&lt;/p&gt;&lt;p style=&quot;margin:0px;margin-left:4px;&quot;&gt;- date : datetime&lt;/p&gt;&lt;p style=&quot;margin:0px;margin-left:4px;&quot;&gt;- status : String&lt;/p&gt;&lt;hr size=&quot;1&quot;&gt;&lt;p style=&quot;margin:0px;margin-left:4px;&quot;&gt;+ createMistake()&lt;/p&gt;&lt;p style=&quot;margin:0px;margin-left:4px;&quot;&gt;+ updateMistake()&lt;/p&gt;&lt;p style=&quot;margin:0px;margin-left:4px;&quot;&gt;+ getName_mistake() : String&lt;/p&gt;&lt;p style=&quot;margin:0px;margin-left:4px;&quot;&gt;+ getDate () : datetime&lt;/p&gt;&lt;p style=&quot;margin:0px;margin-left:4px;&quot;&gt;+ getStatus() String&lt;/p&gt;" style="verticalAlign=top;align=left;overflow=fill;fontSize=12;fontFamily=Helvetica;html=1;whiteSpace=wrap;" parent="1" vertex="1">
          <mxGeometry x="570" y="705" width="190" height="180" as="geometry" />
        </mxCell>
        <mxCell id="crh41KeEDs_YtKikNC4b-1" value="&lt;p style=&quot;margin:0px;margin-top:4px;text-align:center;&quot;&gt;&lt;b&gt;Feedback&lt;/b&gt;&lt;/p&gt;&lt;hr size=&quot;1&quot;&gt;&lt;p style=&quot;margin:0px;margin-left:4px;&quot;&gt;- feedbackID : String (key)&lt;/p&gt;&lt;p style=&quot;margin:0px;margin-left:4px;&quot;&gt;- name_feedback&lt;/p&gt;&lt;p style=&quot;margin:0px;margin-left:4px;&quot;&gt;- content : String&lt;/p&gt;&lt;p style=&quot;margin:0px;margin-left:4px;&quot;&gt;- status : String&lt;/p&gt;&lt;hr size=&quot;1&quot;&gt;&lt;p style=&quot;margin:0px;margin-left:4px;&quot;&gt;+ createFeedback()&lt;/p&gt;&lt;p style=&quot;margin:0px;margin-left:4px;&quot;&gt;+ updateFeedback()&lt;/p&gt;&lt;p style=&quot;margin:0px;margin-left:4px;&quot;&gt;+ deleteFeedback()&lt;/p&gt;&lt;p style=&quot;margin:0px;margin-left:4px;&quot;&gt;+ getName_feedback() String&lt;/p&gt;&lt;p style=&quot;margin:0px;margin-left:4px;&quot;&gt;+ getContent() :String&lt;/p&gt;&lt;p style=&quot;margin:0px;margin-left:4px;&quot;&gt;+ getStatus() : String&lt;/p&gt;" style="verticalAlign=top;align=left;overflow=fill;fontSize=12;fontFamily=Helvetica;html=1;whiteSpace=wrap;" vertex="1" parent="1">
          <mxGeometry x="590" y="920" width="170" height="200" as="geometry" />
        </mxCell>
        <mxCell id="crh41KeEDs_YtKikNC4b-2" value="&lt;p style=&quot;margin:0px;margin-top:4px;text-align:center;&quot;&gt;&lt;b&gt;Room&lt;/b&gt;&lt;/p&gt;&lt;hr size=&quot;1&quot;&gt;&lt;p style=&quot;margin:0px;margin-left:4px;&quot;&gt;- roomID : String (key)&lt;/p&gt;&lt;p style=&quot;margin:0px;margin-left:4px;&quot;&gt;- name_Room : String&lt;/p&gt;&lt;p style=&quot;margin:0px;margin-left:4px;&quot;&gt;- content : String&lt;/p&gt;&lt;hr size=&quot;1&quot;&gt;&lt;p style=&quot;margin:0px;margin-left:4px;&quot;&gt;+ createRoom()&lt;/p&gt;&lt;p style=&quot;margin:0px;margin-left:4px;&quot;&gt;+ updateRoom()&lt;/p&gt;&lt;p style=&quot;margin:0px;margin-left:4px;&quot;&gt;+ deleteRoom()&lt;/p&gt;&lt;p style=&quot;margin:0px;margin-left:4px;&quot;&gt;+ getName_Room() : String&lt;/p&gt;&lt;p style=&quot;margin:0px;margin-left:4px;&quot;&gt;+ getContent() : String&lt;/p&gt;" style="verticalAlign=top;align=left;overflow=fill;fontSize=12;fontFamily=Helvetica;html=1;whiteSpace=wrap;" vertex="1" parent="1">
          <mxGeometry x="90" y="710" width="160" height="170" as="geometry" />
        </mxCell>
        <mxCell id="crh41KeEDs_YtKikNC4b-3" value="&lt;p style=&quot;margin:0px;margin-top:4px;text-align:center;&quot;&gt;&lt;b&gt;Equipment&lt;/b&gt;&lt;br&gt;&lt;/p&gt;&lt;hr size=&quot;1&quot;&gt;&lt;p style=&quot;margin:0px;margin-left:4px;&quot;&gt;- equipmentID : String (key)&lt;/p&gt;&lt;p style=&quot;margin:0px;margin-left:4px;&quot;&gt;- name_equi : String&lt;/p&gt;&lt;p style=&quot;margin:0px;margin-left:4px;&quot;&gt;- contend : String&lt;/p&gt;&lt;hr size=&quot;1&quot;&gt;&lt;p style=&quot;margin:0px;margin-left:4px;&quot;&gt;+ createEquipment()&lt;/p&gt;&lt;p style=&quot;margin:0px;margin-left:4px;&quot;&gt;+ updateEquipment()&lt;/p&gt;&lt;p style=&quot;margin:0px;margin-left:4px;&quot;&gt;+ deleteEquipment()&lt;/p&gt;&lt;p style=&quot;margin:0px;margin-left:4px;&quot;&gt;+ getName_equi() : String&lt;/p&gt;&lt;p style=&quot;margin:0px;margin-left:4px;&quot;&gt;+ getContent() : String&lt;/p&gt;" style="verticalAlign=top;align=left;overflow=fill;fontSize=12;fontFamily=Helvetica;html=1;whiteSpace=wrap;" vertex="1" parent="1">
          <mxGeometry x="90" y="900" width="160" height="170" as="geometry" />
        </mxCell>
        <mxCell id="crh41KeEDs_YtKikNC4b-4" value="&lt;p style=&quot;margin:0px;margin-top:4px;text-align:center;&quot;&gt;&lt;b&gt;Contract&lt;/b&gt;&lt;/p&gt;&lt;hr size=&quot;1&quot;&gt;&lt;p style=&quot;margin:0px;margin-left:4px;&quot;&gt;- ContractID : String (key)&lt;/p&gt;&lt;p style=&quot;margin:0px;margin-left:4px;&quot;&gt;- name_Contract() : String&lt;/p&gt;&lt;p style=&quot;margin:0px;margin-left:4px;&quot;&gt;- content : String&lt;/p&gt;&lt;hr size=&quot;1&quot;&gt;&lt;p style=&quot;margin:0px;margin-left:4px;&quot;&gt;+ createContract()&lt;/p&gt;&lt;p style=&quot;margin:0px;margin-left:4px;&quot;&gt;+ updateContract()&lt;/p&gt;&lt;p style=&quot;margin:0px;margin-left:4px;&quot;&gt;+ deletecontract()&lt;/p&gt;&lt;p style=&quot;margin:0px;margin-left:4px;&quot;&gt;+ getName_Contract() : String&lt;/p&gt;&lt;p style=&quot;margin:0px;margin-left:4px;&quot;&gt;+ getContent() : String&lt;/p&gt;" style="verticalAlign=top;align=left;overflow=fill;fontSize=12;fontFamily=Helvetica;html=1;whiteSpace=wrap;" vertex="1" parent="1">
          <mxGeometry x="827" y="720" width="173" height="170" as="geometry" />
        </mxCell>
        <mxCell id="crh41KeEDs_YtKikNC4b-5" value="&lt;p style=&quot;margin:0px;margin-top:4px;text-align:center;&quot;&gt;&lt;b&gt;Bill&lt;/b&gt;&lt;/p&gt;&lt;hr size=&quot;1&quot;&gt;&lt;p style=&quot;margin:0px;margin-left:4px;&quot;&gt;- billID : String (key)&lt;/p&gt;&lt;p style=&quot;margin:0px;margin-left:4px;&quot;&gt;- name_Bill : String&lt;/p&gt;&lt;p style=&quot;margin:0px;margin-left:4px;&quot;&gt;- content : String&lt;/p&gt;&lt;hr size=&quot;1&quot;&gt;&lt;p style=&quot;margin:0px;margin-left:4px;&quot;&gt;+ createBill()&lt;/p&gt;&lt;p style=&quot;margin:0px;margin-left:4px;&quot;&gt;+ updateBill()&lt;/p&gt;&lt;p style=&quot;margin:0px;margin-left:4px;&quot;&gt;+ deleteBill()&lt;/p&gt;&lt;p style=&quot;margin:0px;margin-left:4px;&quot;&gt;+ getName_Bill() : String&lt;/p&gt;&lt;p style=&quot;margin:0px;margin-left:4px;&quot;&gt;+ getContent() : String&lt;/p&gt;" style="verticalAlign=top;align=left;overflow=fill;fontSize=12;fontFamily=Helvetica;html=1;whiteSpace=wrap;" vertex="1" parent="1">
          <mxGeometry x="220" y="1140" width="160" height="170" as="geometry" />
        </mxCell>
        <mxCell id="crh41KeEDs_YtKikNC4b-6" value="&lt;p style=&quot;margin:0px;margin-top:4px;text-align:center;&quot;&gt;&lt;b&gt;Bill_Detail&lt;/b&gt;&lt;/p&gt;&lt;hr size=&quot;1&quot;&gt;&lt;p style=&quot;margin:0px;margin-left:4px;&quot;&gt;- billI_detailD : String (key)&lt;/p&gt;&lt;p style=&quot;margin:0px;margin-left:4px;&quot;&gt;- name_BillDetail : String&lt;/p&gt;&lt;p style=&quot;margin:0px;margin-left:4px;&quot;&gt;- content : String&lt;/p&gt;&lt;hr size=&quot;1&quot;&gt;&lt;p style=&quot;margin:0px;margin-left:4px;&quot;&gt;+ createBill_Detail()&lt;/p&gt;&lt;p style=&quot;margin:0px;margin-left:4px;&quot;&gt;+ updateBill_Detail()&lt;/p&gt;&lt;p style=&quot;margin:0px;margin-left:4px;&quot;&gt;+ deleteBill_Detail()&lt;/p&gt;&lt;p style=&quot;margin:0px;margin-left:4px;&quot;&gt;+ getName_BillDetail() : String&lt;/p&gt;&lt;p style=&quot;margin:0px;margin-left:4px;&quot;&gt;+ getContent() : String&lt;/p&gt;" style="verticalAlign=top;align=left;overflow=fill;fontSize=12;fontFamily=Helvetica;html=1;whiteSpace=wrap;" vertex="1" parent="1">
          <mxGeometry x="400" y="1150" width="170" height="170" as="geometry" />
        </mxCell>
        <mxCell id="crh41KeEDs_YtKikNC4b-7" value="Quản lý tự quản" style="shape=table;startSize=30;container=1;collapsible=0;childLayout=tableLayout;" vertex="1" parent="1">
          <mxGeometry x="340" y="1760" width="420" height="656" as="geometry" />
        </mxCell>
        <mxCell id="crh41KeEDs_YtKikNC4b-8" value="" style="shape=tableRow;horizontal=0;startSize=0;swimlaneHead=0;swimlaneBody=0;strokeColor=inherit;top=0;left=0;bottom=0;right=0;collapsible=0;dropTarget=0;fillColor=none;points=[[0,0.5],[1,0.5]];portConstraint=eastwest;" vertex="1" parent="crh41KeEDs_YtKikNC4b-7">
          <mxGeometry y="30" width="420" height="40" as="geometry" />
        </mxCell>
        <mxCell id="crh41KeEDs_YtKikNC4b-9" value="Người dùng" style="shape=partialRectangle;html=1;whiteSpace=wrap;connectable=0;strokeColor=inherit;overflow=hidden;fillColor=none;top=0;left=0;bottom=0;right=0;pointerEvents=1;" vertex="1" parent="crh41KeEDs_YtKikNC4b-8">
          <mxGeometry width="210" height="40" as="geometry">
            <mxRectangle width="210" height="40" as="alternateBounds" />
          </mxGeometry>
        </mxCell>
        <mxCell id="crh41KeEDs_YtKikNC4b-10" value="Hệ thống" style="shape=partialRectangle;html=1;whiteSpace=wrap;connectable=0;strokeColor=inherit;overflow=hidden;fillColor=none;top=0;left=0;bottom=0;right=0;pointerEvents=1;" vertex="1" parent="crh41KeEDs_YtKikNC4b-8">
          <mxGeometry x="210" width="210" height="40" as="geometry">
            <mxRectangle width="210" height="40" as="alternateBounds" />
          </mxGeometry>
        </mxCell>
        <mxCell id="crh41KeEDs_YtKikNC4b-11" value="" style="shape=tableRow;horizontal=0;startSize=0;swimlaneHead=0;swimlaneBody=0;strokeColor=inherit;top=0;left=0;bottom=0;right=0;collapsible=0;dropTarget=0;fillColor=none;points=[[0,0.5],[1,0.5]];portConstraint=eastwest;" vertex="1" parent="crh41KeEDs_YtKikNC4b-7">
          <mxGeometry y="70" width="420" height="586" as="geometry" />
        </mxCell>
        <mxCell id="crh41KeEDs_YtKikNC4b-12" value="" style="shape=partialRectangle;html=1;whiteSpace=wrap;connectable=0;strokeColor=inherit;overflow=hidden;fillColor=none;top=0;left=0;bottom=0;right=0;pointerEvents=1;" vertex="1" parent="crh41KeEDs_YtKikNC4b-11">
          <mxGeometry width="210" height="586" as="geometry">
            <mxRectangle width="210" height="586" as="alternateBounds" />
          </mxGeometry>
        </mxCell>
        <mxCell id="crh41KeEDs_YtKikNC4b-13" value="" style="shape=partialRectangle;html=1;whiteSpace=wrap;connectable=0;strokeColor=inherit;overflow=hidden;fillColor=none;top=0;left=0;bottom=0;right=0;pointerEvents=1;" vertex="1" parent="crh41KeEDs_YtKikNC4b-11">
          <mxGeometry x="210" width="210" height="586" as="geometry">
            <mxRectangle width="210" height="586" as="alternateBounds" />
          </mxGeometry>
        </mxCell>
        <mxCell id="crh41KeEDs_YtKikNC4b-14" value="" style="ellipse;html=1;shape=endState;fillColor=#000000;strokeColor=#1f1e1e;" vertex="1" parent="1">
          <mxGeometry x="630" y="2372" width="30" height="30" as="geometry" />
        </mxCell>
        <mxCell id="crh41KeEDs_YtKikNC4b-69" style="edgeStyle=orthogonalEdgeStyle;rounded=0;orthogonalLoop=1;jettySize=auto;html=1;exitX=0.5;exitY=1;exitDx=0;exitDy=0;" edge="1" parent="1" source="crh41KeEDs_YtKikNC4b-15">
          <mxGeometry relative="1" as="geometry">
            <mxPoint x="474.47058823529414" y="1890" as="targetPoint" />
          </mxGeometry>
        </mxCell>
        <mxCell id="crh41KeEDs_YtKikNC4b-15" value="" style="ellipse;html=1;shape=startState;fillColor=#000000;strokeColor=#121212;" vertex="1" parent="1">
          <mxGeometry x="459" y="1840" width="30" height="30" as="geometry" />
        </mxCell>
        <mxCell id="crh41KeEDs_YtKikNC4b-29" style="edgeStyle=orthogonalEdgeStyle;rounded=0;orthogonalLoop=1;jettySize=auto;html=1;exitX=1;exitY=0.5;exitDx=0;exitDy=0;entryX=0;entryY=0.5;entryDx=0;entryDy=0;" edge="1" parent="1" source="crh41KeEDs_YtKikNC4b-17" target="crh41KeEDs_YtKikNC4b-20">
          <mxGeometry relative="1" as="geometry" />
        </mxCell>
        <mxCell id="crh41KeEDs_YtKikNC4b-17" value="Click &quot;Quản Lý Tự Quản&quot;" style="rounded=0;whiteSpace=wrap;html=1;" vertex="1" parent="1">
          <mxGeometry x="400" y="1900" width="135" height="60" as="geometry" />
        </mxCell>
        <mxCell id="crh41KeEDs_YtKikNC4b-98" style="rounded=0;orthogonalLoop=1;jettySize=auto;html=1;exitX=0;exitY=1;exitDx=0;exitDy=0;entryX=1;entryY=0;entryDx=0;entryDy=0;" edge="1" parent="1" source="crh41KeEDs_YtKikNC4b-20" target="crh41KeEDs_YtKikNC4b-70">
          <mxGeometry relative="1" as="geometry" />
        </mxCell>
        <mxCell id="crh41KeEDs_YtKikNC4b-20" value="Hệ thống hiển thị danh sách tự quản." style="rounded=0;whiteSpace=wrap;html=1;" vertex="1" parent="1">
          <mxGeometry x="562.75" y="1900" width="135" height="60" as="geometry" />
        </mxCell>
        <mxCell id="crh41KeEDs_YtKikNC4b-85" style="edgeStyle=orthogonalEdgeStyle;rounded=0;orthogonalLoop=1;jettySize=auto;html=1;exitX=1;exitY=0.5;exitDx=0;exitDy=0;entryX=0;entryY=0.5;entryDx=0;entryDy=0;" edge="1" parent="1" source="crh41KeEDs_YtKikNC4b-50" target="crh41KeEDs_YtKikNC4b-55">
          <mxGeometry relative="1" as="geometry" />
        </mxCell>
        <mxCell id="crh41KeEDs_YtKikNC4b-50" value="Chọn &quot;Chỉnh sửa, Thêm&quot;" style="rounded=0;whiteSpace=wrap;html=1;" vertex="1" parent="1">
          <mxGeometry x="455" y="2090" width="80" height="50" as="geometry" />
        </mxCell>
        <mxCell id="crh41KeEDs_YtKikNC4b-58" style="rounded=0;orthogonalLoop=1;jettySize=auto;html=1;exitX=0;exitY=1;exitDx=0;exitDy=0;entryX=1;entryY=0;entryDx=0;entryDy=0;" edge="1" parent="1" source="crh41KeEDs_YtKikNC4b-55" target="crh41KeEDs_YtKikNC4b-57">
          <mxGeometry relative="1" as="geometry" />
        </mxCell>
        <mxCell id="crh41KeEDs_YtKikNC4b-55" value="Hệ thống hiển thị trang chỉnh sửa, thêm." style="rounded=0;whiteSpace=wrap;html=1;" vertex="1" parent="1">
          <mxGeometry x="570" y="2060" width="135" height="60" as="geometry" />
        </mxCell>
        <mxCell id="crh41KeEDs_YtKikNC4b-57" value="Nhập thông tin" style="rounded=0;whiteSpace=wrap;html=1;" vertex="1" parent="1">
          <mxGeometry x="395" y="2170" width="120" height="50" as="geometry" />
        </mxCell>
        <mxCell id="crh41KeEDs_YtKikNC4b-59" value="" style="rhombus;whiteSpace=wrap;html=1;" vertex="1" parent="1">
          <mxGeometry x="590" y="2170" width="80" height="50" as="geometry" />
        </mxCell>
        <mxCell id="crh41KeEDs_YtKikNC4b-60" style="edgeStyle=orthogonalEdgeStyle;rounded=0;orthogonalLoop=1;jettySize=auto;html=1;exitX=1;exitY=0.5;exitDx=0;exitDy=0;entryX=0;entryY=0.5;entryDx=0;entryDy=0;" edge="1" parent="1" source="crh41KeEDs_YtKikNC4b-57" target="crh41KeEDs_YtKikNC4b-59">
          <mxGeometry relative="1" as="geometry" />
        </mxCell>
        <mxCell id="crh41KeEDs_YtKikNC4b-61" value="KT thông tin" style="text;html=1;align=center;verticalAlign=middle;resizable=0;points=[];autosize=1;strokeColor=none;fillColor=none;" vertex="1" parent="1">
          <mxGeometry x="520" y="2160" width="90" height="30" as="geometry" />
        </mxCell>
        <mxCell id="crh41KeEDs_YtKikNC4b-63" value="Không hợp lệ" style="text;html=1;align=center;verticalAlign=middle;resizable=0;points=[];autosize=1;strokeColor=none;fillColor=none;" vertex="1" parent="1">
          <mxGeometry x="580" y="2130" width="100" height="30" as="geometry" />
        </mxCell>
        <mxCell id="crh41KeEDs_YtKikNC4b-64" style="edgeStyle=orthogonalEdgeStyle;rounded=0;orthogonalLoop=1;jettySize=auto;html=1;exitX=0.5;exitY=0;exitDx=0;exitDy=0;entryX=0.443;entryY=1.005;entryDx=0;entryDy=0;entryPerimeter=0;" edge="1" parent="1" source="crh41KeEDs_YtKikNC4b-59" target="crh41KeEDs_YtKikNC4b-55">
          <mxGeometry relative="1" as="geometry" />
        </mxCell>
        <mxCell id="crh41KeEDs_YtKikNC4b-97" style="edgeStyle=orthogonalEdgeStyle;rounded=0;orthogonalLoop=1;jettySize=auto;html=1;exitX=1;exitY=0.5;exitDx=0;exitDy=0;entryX=0;entryY=0.5;entryDx=0;entryDy=0;" edge="1" parent="1" source="crh41KeEDs_YtKikNC4b-70" target="crh41KeEDs_YtKikNC4b-71">
          <mxGeometry relative="1" as="geometry" />
        </mxCell>
        <mxCell id="crh41KeEDs_YtKikNC4b-70" value="Chọn tự quản cụ thể" style="rounded=0;whiteSpace=wrap;html=1;" vertex="1" parent="1">
          <mxGeometry x="400" y="1980" width="135" height="60" as="geometry" />
        </mxCell>
        <mxCell id="crh41KeEDs_YtKikNC4b-71" value="Hiển thị thông tin tự quản" style="rounded=0;whiteSpace=wrap;html=1;" vertex="1" parent="1">
          <mxGeometry x="560" y="1980" width="140" height="60" as="geometry" />
        </mxCell>
        <mxCell id="crh41KeEDs_YtKikNC4b-87" style="edgeStyle=orthogonalEdgeStyle;rounded=0;orthogonalLoop=1;jettySize=auto;html=1;exitX=0.25;exitY=1;exitDx=0;exitDy=0;entryX=0;entryY=0.5;entryDx=0;entryDy=0;" edge="1" parent="1" source="crh41KeEDs_YtKikNC4b-72" target="crh41KeEDs_YtKikNC4b-86">
          <mxGeometry relative="1" as="geometry" />
        </mxCell>
        <mxCell id="crh41KeEDs_YtKikNC4b-72" value="Chọn &quot;Xóa&quot;" style="rounded=0;whiteSpace=wrap;html=1;" vertex="1" parent="1">
          <mxGeometry x="350" y="2090" width="80" height="50" as="geometry" />
        </mxCell>
        <mxCell id="crh41KeEDs_YtKikNC4b-83" style="edgeStyle=orthogonalEdgeStyle;rounded=0;orthogonalLoop=1;jettySize=auto;html=1;exitX=0.25;exitY=0.5;exitDx=0;exitDy=0;exitPerimeter=0;entryX=1;entryY=0;entryDx=0;entryDy=0;" edge="1" parent="1" source="crh41KeEDs_YtKikNC4b-74" target="crh41KeEDs_YtKikNC4b-72">
          <mxGeometry relative="1" as="geometry" />
        </mxCell>
        <mxCell id="crh41KeEDs_YtKikNC4b-84" style="edgeStyle=orthogonalEdgeStyle;rounded=0;orthogonalLoop=1;jettySize=auto;html=1;exitX=0.75;exitY=0.5;exitDx=0;exitDy=0;exitPerimeter=0;entryX=0;entryY=0;entryDx=0;entryDy=0;" edge="1" parent="1" source="crh41KeEDs_YtKikNC4b-74" target="crh41KeEDs_YtKikNC4b-50">
          <mxGeometry relative="1" as="geometry" />
        </mxCell>
        <mxCell id="crh41KeEDs_YtKikNC4b-74" value="" style="shape=line;html=1;strokeWidth=6;strokeColor=#330000;" vertex="1" parent="1">
          <mxGeometry x="413" y="2060" width="56" height="10" as="geometry" />
        </mxCell>
        <mxCell id="crh41KeEDs_YtKikNC4b-77" style="rounded=0;orthogonalLoop=1;jettySize=auto;html=1;exitX=0;exitY=1;exitDx=0;exitDy=0;" edge="1" parent="1" source="crh41KeEDs_YtKikNC4b-71">
          <mxGeometry relative="1" as="geometry">
            <mxPoint x="440" y="2060" as="targetPoint" />
          </mxGeometry>
        </mxCell>
        <mxCell id="crh41KeEDs_YtKikNC4b-90" style="edgeStyle=orthogonalEdgeStyle;rounded=0;orthogonalLoop=1;jettySize=auto;html=1;exitX=0.5;exitY=1;exitDx=0;exitDy=0;" edge="1" parent="1" source="crh41KeEDs_YtKikNC4b-86">
          <mxGeometry relative="1" as="geometry">
            <mxPoint x="627.4117647058824" y="2330" as="targetPoint" />
          </mxGeometry>
        </mxCell>
        <mxCell id="crh41KeEDs_YtKikNC4b-86" value="Hệ thống hiển thị xóa thành công." style="rounded=0;whiteSpace=wrap;html=1;" vertex="1" parent="1">
          <mxGeometry x="560" y="2240" width="135" height="60" as="geometry" />
        </mxCell>
        <mxCell id="crh41KeEDs_YtKikNC4b-88" value="" style="shape=line;html=1;strokeWidth=6;strokeColor=#330000;rotation=0;" vertex="1" parent="1">
          <mxGeometry x="610" y="2330" width="70" height="10" as="geometry" />
        </mxCell>
        <mxCell id="crh41KeEDs_YtKikNC4b-92" style="edgeStyle=orthogonalEdgeStyle;rounded=0;orthogonalLoop=1;jettySize=auto;html=1;exitX=1;exitY=0.5;exitDx=0;exitDy=0;" edge="1" parent="1" source="crh41KeEDs_YtKikNC4b-59">
          <mxGeometry relative="1" as="geometry">
            <mxPoint x="665" y="2330" as="targetPoint" />
            <Array as="points">
              <mxPoint x="720" y="2195" />
              <mxPoint x="720" y="2310" />
              <mxPoint x="665" y="2310" />
            </Array>
          </mxGeometry>
        </mxCell>
        <mxCell id="crh41KeEDs_YtKikNC4b-96" style="edgeStyle=orthogonalEdgeStyle;rounded=0;orthogonalLoop=1;jettySize=auto;html=1;entryX=0.5;entryY=0;entryDx=0;entryDy=0;" edge="1" parent="1" source="crh41KeEDs_YtKikNC4b-88" target="crh41KeEDs_YtKikNC4b-14">
          <mxGeometry relative="1" as="geometry">
            <mxPoint x="672.7058823529414" y="2420" as="targetPoint" />
            <mxPoint x="780" y="2450" as="sourcePoint" />
          </mxGeometry>
        </mxCell>
      </root>
    </mxGraphModel>
  </diagram>
</mxfile>
